<?xml version="1.0" encoding="utf-8" ?>
<svg baseProfile="tiny" height="1000px" version="1.2" width="1000px" xmlns="http://www.w3.org/2000/svg" xmlns:ev="http://www.w3.org/2001/xml-events" xmlns:xlink="http://www.w3.org/1999/xlink"><defs /><path d="M263,851 C437,1062 439,1064 442,1066 445,1068 447,1070 451,1072 454,1073 457,1074 460,1074 463,1074 467,1075 470,1074 473,1074 476,1073 479,1072 482,1070 485,1069 488,1067 491,1065 493,1063 495,1060 497,1057 499,1054 500,1052 501,1048 502,1045 503,1042 503,1039 503,1035 503,1032 503,1029 503,1025 503,1022 503,1018 503,1015 503,1012 503,1009 503,1005 503,1002 503,998 503,995 503,992 503,988 503,985 503,982 503,978 503,975 503,972 503,968 503,965 503,962 503,958 502,955 502,951 502,948 502,945 502,941 502,938 502,935 502,931 502,928 502,925 502,921 502,918 502,915 502,911 502,908 502,905 502,901 502,898 502,895 502,891 502,888 502,885 502,881 502,878 502,874 502,871 502,868 502,865 502,861 502,858 502,854 502,851 502,848 502,844 502,841 502,838 502,834 502,831 502,828 502,824 502,821 502,818 502,815 503,811 504,808 506,805 507,802 509,799 511,797 513,794 515,792 518,789 521,787 523,785 526,784 529,782 532,781 536,780 539,779 541,779 545,778 548,778 551,777 554,776 557,775 560,773 563,772 566,771 569,769 573,768 576,767 579,765 582,764 585,763 588,761 591,760 594,759 598,758 600,757 603,757 606,756 610,755 613,754 616,752 619,750 621,748 624,747 628,745 631,744 634,743 637,742 640,741 643,739 646,738 649,736 651,733 654,731 657,729 659,726 661,724 664,722 666,719 669,717 672,715 674,714 677,712 680,710 683,709 687,708 690,707 693,706 696,705 700,705 703,704 706,703 710,703 713,702 716,702 719,702 723,702 726,702 730,702 733,701 737,700 740,700 743,699 746,697 749,696 752,694 755,692 758,690 760,688 763,685 765,683 767,680 769,677 770,674 772,671 773,668 774,665 775,662 776,658 776,655 777,652 778,648 778,645 779,642 779,638 779,635 779,632 779,628 779,625 779,622 778,618 778,615 778,612 777,608 776,605 774,602 773,599 771,596 769,594 766,591 764,589 761,587 759,585 756,583 754,580 752,577 751,574 749,571 748,569 747,566 745,563 744,560 741,557 739,555 737,552 735,550 733,546 732,543 730,540 729,538 727,535 724,533 722,530 719,528 716,527 713,525 710,524 707,523 703,522 700,520 697,519 695,517 692,514 690,512 688,510 686,507 684,504 683,501 682,498 681,495 681,491 680,488 680,484 679,481 678,478 678,475 677,471 676,468 675,465 675,461 674,458 673,455 671,452 670,449 668,446 666,444 663,441 661,439 658,437 655,435 652,434 649,432 646,430 644,428 641,426 639,423 637,421 635,418 633,416 630,413 628,411 625,408 624,406 621,403 620,401 618,398 616,396 614,393 613,390 611,386 610,383 609,380 607,377 606,374 604,371 602,368 600,366 598,363 595,361 593,358 590,356 587,354 585,352 582,351 579,349 576,348 573,347 569,345 566,344 563,342 560,340 558,338 555,336 553,333 551,330 549,327 548,325 545,322 543,320 541,317 538,315 536,313 533,311 531,309 528,306 526,304 524,301 521,299 518,297 516,296 513,294 510,293 507,291 504,288 501,287 499,284 496,282 493,281 490,279 487,278 484,277 481,277 477,276 474,276 470,277 467,277 463,276 460,276 457,275 454,274 451,272 448,271 445,269 441,268 438,267 435,267 431,266 428,266 425,267 422,267 418,268 415,268 411,267 408,267 405,268 401,268 398,269 395,269 391,269 388,270 385,271 381,271 378,272 375,273 372,274 368,275 365,277 363,278 360,280 356,281 353,282 350,282 346,282 343,282 340,283 336,283 333,284 330,285 327,285 323,285 320,285 317,284 313,283 310,282 307,281 304,281 301,280 297,280 294,281 291,281 287,281 284,281 280,281 277,281 274,280 271,279 268,277 265,276 262,275 258,275 255,274 251,274 248,274 245,273 242,272 238,271 235,270 231,270 228,270 225,271 222,271 218,272 215,273 212,275 209,277 206,279 204,281 201,284 199,286 197,289 196,292 194,295 193,298 192,301 190,304 188,307 186,309 184,312 181,314 178,316 176,318 173,320 171,323 169,326 167,328 165,331 162,333 159,335 156,337 153,338 150,339 147,340 143,341 140,342 137,343 134,344 131,346 128,347 125,348 122,349 118,350 115,351 112,352 109,353 106,354 102,354 99,355 95,355 92,354 89,354 86,353 82,353 79,353 76,354 73,355 70,356 67,357 63,358 60,359 57,359 53,360 50,360 47,360 43,360 40,361 37,361 33,363 30,364 27,366 25,368 22,370 20,372 18,375 16,378 14,381 13,384 11,387 11,390 10,394 10,397 10,400 10,404 11,407 12,410 13,413 14,416 16,419 18,422 20,425 22,427 25,429 28,431 31,433 34,434 37,435 40,436 43,437 47,437 50,438 53,439 56,440 59,441 62,442 65,444 68,446 71,447 75,448 78,450 81,451 83,453 86,455 88,457 91,459 94,461 97,463 100,464 103,465 106,466 110,466 113,467 116,468 119,470 122,471 125,473 128,475 131,476 134,477 137,478 140,479 143,481 146,482 148,484 151,486 154,488 156,491 159,493 161,495 164,497 167,499 170,501 172,503 174,506 176,509 178,511 180,514 181,518 182,521 183,524 184,527 184,530 185,534 185,537 186,540 186,544 186,547 186,551 187,554 188,557 190,560 191,563 193,566 195,568 198,571 200,573 203,575 206,577 209,578 212,579 215,581 218,582 221,583 225,584 228,585 231,586 234,587 237,588 241,589 244,590 247,591 251,591 254,592 257,593 261,593 264,593 267,594 271,594 274,594 278,594 281,594 284,594 288,594 291,595 294,596 298,596 301,597 304,598 307,599 311,600 314,601 317,602 320,603 324,604 327,605 330,606 333,607 336,609 340,610 343,611 346,613 348,615 351,616 354,618 357,620 359,623 362,625 365,627 368,628 371,630 374,631 377,633 380,634 383,635 387,636 390,638 393,640 395,642 398,644 401,646 404,648 407,649 410,650 413,651 416,652 420,653 423,654 426,655 429,656 432,657 435,659 438,661 441,662 443,665 446,667 448,669 451,671 453,674 456,676 458,678 461,680 463,683 466,685 468,688 470,691 471,693 472,697 473,700 474,703 475,706 477,709 478,712 480,715 482,718 484,721 486,724 487,727 488,730 489,733 489,737 490,740 491,743 492,746 494,749 496,752 498,755 500,757 502,760 504,763 505,766 506,769 507,773 508,776 508,779 508,783 508,786 507,790 506,793 506,796 505,800 505,803 506,806 506,810 505,813 505,816 504,819 503,823 501,826 500,829 499,832 499,836 498,839 498,842 499,846 499,849 498,853 498,856 497,859 496,862 494,865 493,868 491,871 490,875 489,878 488,881 488,885 488,888 487,891 485,895 484,898 482,901 481,904 480,907 478,910 477,913 475,916 473,918 470,921 468,923 465,925 462,926 459,928 457,930 454,933 452,935 449,937 446,938 443,940 440,942 437,944 434,946 432,948 429,949 426,951 423,952 420,953 416,953 413,953 409,953 406,953 403,953 399,952 396,951 393,949 390,947 387,946 384,944 382,942 379,940 377,937 375,935 373,932 371,929 369,926 367,923 365,921 363,919 360,916 358,914 355,912 352,910 349,909 346,907 343,907 340,906 336,905 333,905 330,904 326,904 323,903 320,903 316,903 313,903 310,903 306,902 303,902 300,902 296,901 293,901 290,901 286,901 283,901 279,901 276,902 273,903 269,904 266,905 263,906 260,907 257,908 253,909 250,911 247,912 244,912 241,913 238,915 235,916 232,918 229,920 227,923 224,925 222,926 219,928 215,929 212,930 209,931 205,932 202,932 199,932 195,931 192,931 189,930 185,929 182,929 179,928 175,927 172,927 169,926 165,926 162,927 159,927 155,928 152,929 149,929 146,929 142,929 139,928 136,927 133,926 130,925 127,923 124,921 121,919 118,918 115,917 111,916 108,915 105,914 102,913 99,912 96,910 93,908 90,906 87,904 84,902 82,901 78,900 75,899 72,898 69,898 65,897 62,896 59,895 55,894 52,894 49,893 45,893 42,892 39,891 36,889 33,888 30,886 28,884 25,881 23,878 21,876 19,873 18,870 17,866 16,863 15,860 15,857 15,853 15,850 16,847 17,843 18,840 19,837 21,834 23,831 25,829 28,826 30,824 33,822 36,820 39,818 41,816 44,814 47,813 50,811 53,809 56,807 59,806 62,805 66,805 69,805 72,805 76,805 79,806 82,806 86,806 89,806 92,805 96,804 99,803 102,802 105,800 107,798 110,796 113,794 115,791 117,788 119,786 121,783 123,781 125,778 127,776 129,773 131,771 133,769 136,766 138,764 140,762 143,760 145,758 148,756 151,754 154,752 156,750 159,748 161,746 164,743 166,741 168,738 170,736 172,733 175,731 178,729 181,728 184,727 187,725 190,723 192,721 195,719 197,717 200,715 203,714 206,712 209,711 211,709 214,707 217,705 219,702 221,700 224,698 227,696 230,694 232,693 235,691 238,690 241,688 243,686 246,684 249,683 253,682 256,681" fill="none" stroke="#000" stroke-width="1" /><path d="M792,713 C907,864 908,866 910,868 911,870 912,872 914,874 915,875 916,877 918,879 919,881 921,883 922,884 923,886 925,888 926,890 928,892 929,894 930,895 932,897 933,899 934,901 936,903 937,904 939,906 940,908 941,910 943,912 944,914 946,915 947,917 948,919 950,921 952,924 953,927 954,930 955,933 956,936 957,940 957,943 956,947 956,950 955,953 954,956 953,959 951,962 950,965 948,968 945,970 943,972 940,974 937,976 934,978 931,979 928,980 925,981 921,981 918,981 915,981 911,981 908,980 905,979 902,978 899,976 896,974 894,972 891,970 889,967 887,965 884,962 882,960 880,957 878,955 876,952 874,949 872,947 869,944 867,942 865,939 863,937 861,934 859,932 857,929 854,926 852,924 850,921 848,919 846,916 844,913 842,911 840,908 837,906 835,903 833,901 831,898 829,896 827,893 825,890 823,888 820,885 818,883 816,880 814,878 812,875 810,872 808,870 805,867 803,865 801,862 799,859 797,857 795,854 792,852 790,849 788,847 786,844 784,842 782,839 780,836 778,834 776,831 773,829 771,826 769,824 767,821 765,818 763,816 760,813 758,811 756,808 754,805 752,803 750,800 747,798 745,795 743,792 741,790 739,787 737,785 734,782 732,779 730,777 728,774 726,771 724,768 723,765 722,762 721,759 720,755 720,752 720,749 720,745 721,742 722,739 723,735 724,732 726,729 728,727 730,724 732,722 735,720 738,718 741,716 744,715 747,714 750,712 753,711 756,710 760,708 763,708 766,707 769,707 773,707 776,707 779,706 783,705 786,704 789,702 792,701 795,699 798,697 800,694 802,692 804,689 806,686 807,683 809,680 809,676 810,673 810,670 810,666 810,663 810,660 809,657 808,653 807,650 807,647 806,643 805,640 804,637 803,634 802,631 801,628 799,624 798,621 796,618 795,615 793,612 792,609 790,606 789,603 788,600 786,597 785,594 783,591 781,588 778,586 776,584 774,581 772,579 770,576 768,573 766,570 764,568 762,565 761,561 759,559 757,556 755,553 754,551 752,548 750,546 748,543 746,540 745,537 743,534 741,532 738,529 736,527 733,525 731,522 728,520 725,518 723,516 721,513 719,510 717,507 716,504 715,501 714,498 714,495 713,491 713,488 712,485 711,482 710,479 708,476 706,473 704,470 702,468 700,465 698,462 696,459 694,457 693,454 691,450 690,447 689,444 687,441 685,438 683,436 681,433 678,431 676,429 673,427 670,425 667,424 664,422 661,420 659,418 657,415 654,413 652,410 650,408 647,406 645,404 642,402 640,399 637,397 636,394 634,391 633,388 631,385 631,382 630,379 629,375 628,372 627,369 625,366 623,363 621,360 619,358 617,355 615,353 612,350 610,348 607,345 605,343 602,342 599,340 596,339 593,337 590,336 586,335 583,334 580,333 577,331 574,330 571,328 568,326 565,324 563,321 560,319 558,317 556,314 554,312 551,309 549,307 547,304 545,302 542,300 540,297 537,295 535,293 532,291 529,289 526,288 524,286 520,284 518,282 515,281 511,280 508,279 505,278 502,277 498,277 495,277 492,276 489,275 485,274 482,272 479,271 476,270 473,268 470,267 467,265 463,265 460,263 457,263 454,262 450,262 447,261 444,261 440,261 437,261 434,261 430,262 427,263 424,264 421,265 418,266 414,267 411,267 407,267 404,267 401,268 397,268 394,269 391,269 387,269 384,269 381,269 377,270 374,270 371,270 367,270 364,271 360,271 357,272 354,272 351,273 347,273 344,273 341,273 337,273 334,272 331,272 327,272 324,272 321,271 318,271 314,271 311,271 308,272 304,272 301,273 298,273 294,273 291,272 288,272 284,271 281,271 278,271 274,272 271,273 268,274 265,275 262,276 259,277 256,279 252,280 249,282 246,283 243,285 240,286 238,288 235,290 232,292 229,294 226,295 223,297 220,299 217,301 215,303 213,305 211,308 209,311 207,314 206,317 203,319 201,322 199,324 196,326 193,328 190,330 188,332 186,335 184,338 182,341 180,343 177,346 175,348 172,350 169,352 167,354 163,355 160,356 157,357 153,357 150,357 147,357 143,357 140,356 137,355 133,355 130,355 127,356 123,357 120,358 117,359 114,360 111,362 108,363 105,364 102,366 99,367 96,368 92,369 89,369 86,369 83,369 79,369 76,368 73,367 70,366 66,366 63,366 60,366 56,366 53,367 50,368 47,369 44,371 41,373 38,375 35,377 33,379 31,382 29,385 28,388 27,391 26,394 25,398 24,401 24,405 24,408 25,411 26,414 27,418 28,421 30,424 31,427 33,429 36,432 38,434 41,436 44,438 47,440 50,441 53,442 56,443 60,443 63,443 66,443 70,443 73,442 76,443 80,443 83,442 86,442 89,441 93,439 96,438 99,436 102,435 105,433 108,433 111,432 114,432 118,432 121,432 125,432 128,433 131,434 134,435 137,437 140,439 142,441 145,443 147,446 149,448 151,451 154,453 156,455 158,458 159,461 161,463 163,466 165,469 167,472 169,475 171,478 172,480 174,483 176,486 178,489 179,492 181,495 183,498 185,500 187,503 189,506 190,509 192,512 193,515 195,518 197,520 200,523 202,525 205,527 208,529 211,530 213,532 216,534 219,536 221,539 223,541 225,544 227,547 229,549 232,552 234,554 237,555 240,557 243,558 246,560 249,562 252,564 254,566 257,568 260,570 263,571 266,573 269,574 273,574 276,575 279,577 282,578 285,579 288,580 292,581 295,581 298,582 302,582 305,583 308,584 312,585 315,586 318,587 321,588 324,589 328,591 331,592 334,593 337,594 340,595 344,596 347,598 350,600 352,602 355,604 357,606 360,607 363,609 367,610 370,611 373,612 377,613 380,614 383,615 386,617 389,618 391,620 394,623 397,625 400,627 403,628 406,630 409,631 412,633 415,635 418,637 421,638 424,640 427,641 430,642 433,644 436,645 439,646 442,648 445,650 447,652 450,654 452,657 455,659 457,661 459,664 461,667 463,670 465,672 467,675 470,677 472,679 474,682 476,685 478,688 479,691 481,694 483,697 485,699 487,701 489,704 491,707 493,710 494,713 496,716 497,719 499,722 500,725 502,727 504,730 506,733 507,737 509,740 509,743 510,746 512,749 513,752 514,756 514,759 515,763 515,766 515,769 516,773 517,776 518,779 519,782 520,786 521,789 521,792 521,796 521,799 521,803 521,806 520,809 519,812 519,816 519,819 520,822 520,826 520,829 519,832 519,836 518,839 516,842 515,845 513,848 511,851 510,854 509,858 508,861 508,864 507,867 507,871 507,874 507,878 506,881 505,884 504,887 502,890 501,893 500,897 499,900 498,903 497,907 495,909 493,912 491,915 489,918 487,921 485,923 482,925 480,928 478,930 476,933 474,936 473,939 470,941 469,944 467,947 464,949 462,952 459,954 456,956 453,957 450,959 447,959 444,960 441,961 437,961 434,961 431,960 427,959 424,958 421,957 418,956 415,954 412,952 410,949 407,947 404,946 401,944 398,943 395,942 392,941 388,941 385,940 381,941 378,941 375,942 372,942 368,942 365,943 361,943 358,944 355,945 352,945 349,945 345,945 342,945 338,944 335,943 332,941 329,940 326,938 323,937 320,935 317,934 315,932 312,930 309,929 306,927 303,926 300,924 296,923 293,922 290,921 286,920 283,920 279,920 276,921 273,921 270,922 266,923 263,924 260,926 258,928 254,929 252,931 249,932 245,933 243,935 240,937 237,939 234,940 231,941 228,942 224,943 221,943 217,943 214,943 211,942 207,942 204,940 201,939 198,937 195,935 193,933 190,931 188,929 185,927 182,925 179,924 176,923 173,921 170,920 167,918 163,917 160,916 157,916 154,916 150,916 147,916 144,916 140,916 137,915 134,914 130,913 127,912 124,910 122,908 119,906 116,904 113,903 110,901 107,900 103,899 100,898 97,897 94,895 91,894 88,893 85,891 82,890 79,889 75,889 72,889 68,889 65,889 62,890 58,891 55,891 52,891 49,892 45,891 42,891 39,890 35,889 32,887 29,886 26,884 24,882 21,879 19,877 17,874 15,871 14,868 13,865 12,862 11,858 11,855 11,852 11,848 12,845 12,842 14,838 15,835 17,832 19,830 21,827 23,824 26,822 28,820 31,818 34,816 37,815 40,813 42,811 45,809 48,807 51,805 54,803 57,801 59,799 62,798 65,795 68,794 70,791 73,789 75,787 78,785 81,783 83,781 86,779 88,777 91,775 94,773 96,771 99,769 102,767 104,765 107,763 110,761 112,760 115,758 118,756 121,755 124,754 127,752 130,751 133,750 136,749 139,748 142,746 145,745 148,743 151,741 153,739 156,737 158,735 161,732 163,730 166,728 169,726 171,724 174,722 177,720 179,718 182,717 185,715 188,713 191,711 193,710 196,708 199,706 201,704 204,702 207,700 209,698 212,696 215,694 217,692 220,690 222,688 225,686 228,684 230,682 233,680 236,678 239,677" fill="none" stroke="#000" stroke-width="1" /><path d="M289,881 C382,808 383,807 384,806 385,805 386,804 387,803 388,802 390,801 391,800 392,800 393,799 394,798 395,797 396,796 397,795 399,794 400,793 401,793 402,792 403,791 404,790 405,789 406,788 408,787 409,786 410,785 411,784 412,784 413,783 414,782 415,781 417,780 418,779 419,778 420,777 421,776 422,776 423,775 425,774 426,773 427,772 428,771 429,770 430,769 431,768 433,767 434,767 435,766 436,765 437,764 438,763 439,762 441,761 442,760 443,759 444,758 445,758 446,757 447,756 449,755 450,754 451,753 452,752 453,751 454,750 455,750 456,749 458,748 459,747 460,746 461,745 462,744 463,743 464,742 466,741 467,741 468,740 469,739 470,738 471,737 472,736 474,735 475,734 476,733 477,732 478,732 479,731 480,730 481,729 483,728 484,727 486,725 488,722 490,720 492,717 494,714 495,711 497,709 500,706 502,704 505,702 507,700 510,698 514,697 517,696 520,695 523,695 527,694 530,694 534,695 537,696 540,696 543,697 546,698 550,698 553,699 556,699 559,699 561,699 564,699 566,700 570,700 572,700 575,700 577,700 580,700 583,701 586,701 589,701 592,702 596,702 599,703 603,703 606,703 609,703 613,703 616,702 619,701 623,701 626,701 630,701 633,702 636,703 640,703 643,702 646,702 650,701 653,700 656,699 659,697 662,695 664,693 667,691 670,690 673,688 676,687 680,686 683,685 686,684 689,683 692,683 696,683 699,683 703,683 706,683 709,683 713,683 716,683 719,684 723,684 726,685 729,685 733,686 736,686 740,686 743,686 746,685 750,684 753,683 756,681 759,680 762,677 764,675 767,673 769,670 770,667 772,665 773,661 775,658 775,655 776,652 777,648 777,645 777,642 778,638 778,635 778,631 778,628 778,625 778,621 777,618 777,615 777,612 776,608 775,605 774,602 773,598 772,595 771,592 770,589 769,585 769,582 768,579 768,575 767,572 767,569 766,566 764,563 763,560 761,557 759,554 756,552 754,549 752,546 751,543 749,541 747,538 744,535 742,533 740,531 738,528 736,525 734,522 732,520 730,517 728,515 725,512 723,511 720,509 717,507 715,505 712,502 710,499 708,497 706,494 705,491 703,488 702,485 701,482 700,478 699,475 699,472 699,469 698,465 698,462 697,459 696,456 694,452 692,450 691,447 688,444 686,442 685,439 683,436 682,432 681,429 680,426 678,423 676,420 675,417 672,415 670,413 667,410 664,408 661,407 658,405 656,404 653,402 650,400 648,397 646,395 644,392 642,389 640,387 638,384 635,382 633,379 630,377 628,375 626,372 625,369 623,366 622,363 621,360 620,357 620,353 619,350 619,347 617,344 616,340 614,338 612,335 610,332 607,330 605,328 602,326 599,324 596,322 594,320 591,318 588,316 585,315 582,313 579,312 576,310 573,308 570,306 568,303 566,301 564,298 562,295 561,292 559,289 559,286 558,283 558,279 558,276 558,273 558,269 557,266 557,263 556,260 555,256 553,253 552,251 550,248 547,245 545,243 542,241 539,239 536,237 533,236 530,235 527,234 524,233 520,233 517,233 514,234 510,234 507,233 504,233 500,233 497,233 493,232 490,232 486,232 483,232 480,232 476,232 473,232 470,233 466,233 463,234 460,234 457,235 453,236 450,237 447,238 444,239 441,241 437,242 434,243 431,244 428,245 425,246 421,247 418,248 415,249 412,249 408,250 405,252 402,253 399,254 396,255 392,256 389,257 386,258 383,259 379,259 376,260 373,261 370,262 367,263 363,264 360,264 357,265 353,265 350,265 347,265 344,265 340,265 337,265 334,265 330,265 327,265 323,265 320,266 317,266 313,266 310,267 307,267 303,267 300,267 297,268 294,268 290,268 287,269 284,269 280,270 277,270 274,271 270,272 267,273 264,274 261,275 258,277 255,278 252,280 249,281 246,283 243,286 240,288 238,290 235,292 233,294 230,296 228,299 225,301 223,303 221,306 218,308 216,310 213,313 211,315 208,317 206,320 203,322 201,324 198,326 195,328 193,331 190,333 187,335 185,336 182,338 178,339 175,340 172,341 169,342 165,343 162,344 159,344 155,345 152,346 149,346 146,347 142,347 139,348 136,349 133,350 130,351 126,352 123,353 120,354 117,355 114,356 110,356 107,357 104,358 101,358 97,359 94,359 91,360 87,360 84,360 81,361 78,361 74,362 71,362 68,363 64,364 61,365 58,366 55,367 52,369 49,371 46,373 44,375 42,378 40,380 38,383 36,386 35,389 34,393 33,396 33,399 32,403 33,406 33,409 34,413 35,416 36,419 38,422 39,425 41,428 44,430 46,433 49,435 52,436 55,438 58,439 61,440 64,441 68,441 71,442 74,443 77,443 80,444 84,446 87,447 89,449 92,451 95,453 98,455 101,456 104,457 107,457 111,458 114,459 117,460 120,461 123,463 126,464 129,466 132,467 135,468 139,469 142,470 145,471 148,473 151,474 153,476 155,478 158,481 160,483 163,485 165,487 168,488 172,490 175,491 178,493 180,495 183,498 185,500 187,503 189,506 191,508 193,510 196,513 198,516 200,518 202,521 205,523 208,525 211,526 214,528 217,529 220,530 223,532 225,534 228,536 230,539 232,541 235,544 237,546 240,548 242,551 244,554 245,557 247,559 249,562 252,564 254,567 257,568 260,570 263,572 266,573 269,574 273,574 276,575 279,576 283,577 286,578 289,579 292,580 296,581 299,582 302,583 305,583 309,584 312,585 315,585 319,586 322,587 325,588 329,589 332,589 335,590 339,591 342,591 345,591 349,591 352,590 356,590 359,590 362,591 366,592 369,593 372,594 375,595 378,597 380,599 383,602 385,604 388,606 390,609 393,611 395,613 398,615 401,617 404,618 407,619 411,620 414,621 417,622 420,624 423,625 426,627 428,630 431,632 434,634 437,635 440,637 443,638 447,638 450,639 453,640 456,641 460,642 463,643 465,645 468,647 471,650 473,652 475,655 477,657 478,660 479,664 480,667 481,668 483,671 484,674 486,676 489,679 491,681 493,684 495,686 497,689 499,692 500,695 502,698 503,701 506,704 508,706 510,709 512,712 513,715 515,718 516,721 517,724 519,727 520,730 522,733 523,737 524,740 525,743 525,746 526,750 527,753 528,756 529,759 529,763 530,766 531,769 531,773 531,776 532,780 533,783 533,786 533,790 533,793 533,797 532,800 531,803 530,806 529,809 529,813 528,816 528,819 528,823 529,826 530,829 530,833 530,836 530,840 530,843 529,846 528,849 527,853 526,856 525,859 524,862 522,865 521,868 520,871 518,874 517,877 515,881 514,884 512,887 511,890 510,893 509,897 508,900 506,902 505,906 503,909 501,911 499,914 497,917 495,919 493,922 491,925 489,927 487,930 485,933 483,935 481,938 479,941 477,944 475,947 472,949 470,951 467,953 464,955 461,956 458,957 455,958 452,959 448,959 445,959 442,959 438,958 435,957 432,956 429,955 426,953 423,951 420,949 418,947 415,945 412,944 408,943 405,942 402,941 398,941 395,941 392,941 388,941 385,941 382,941 378,940 375,939 372,937 369,936 367,934 364,932 361,931 358,929 355,927 352,926 349,924 346,923 342,922 339,921 336,920 333,919 330,918 327,917 323,917 320,917 316,917 313,917 310,918 306,919 303,921 300,922 297,924 294,925 291,925 287,926 284,926 280,926 277,926 274,925 270,926 267,926 264,926 261,926 257,925 254,925 251,925 247,925 244,925 241,925 237,925 234,925 230,924 227,924 224,923 220,923 217,923 214,922 210,921 207,920 204,919 201,918 197,917 194,916 191,914 188,913 186,911 183,909 180,908 176,906 173,906 170,905 167,904 163,904 160,903 157,903 154,902 150,901 147,900 144,899 141,898 138,897 134,895 131,894 128,893 125,892 122,891 119,889 116,888 112,887 109,885 106,884 103,883 100,882 97,880 94,879 91,878 87,877 84,876 81,876 77,876 74,876 70,876 67,876 64,876 60,875 57,874 54,874 51,873 48,871 44,870 42,868 39,866 36,864 34,862 31,859 29,856 28,853 26,850 25,847 24,844 24,841 23,838 23,834 24,831 24,827 25,824 26,821 28,818 29,815 31,812 33,809 36,807 38,805 41,803 44,801 47,799 50,797 52,795 55,793 57,790 59,787 61,785 64,783 66,780 69,779 72,777 75,776 78,775 82,774 85,773 88,772 91,771 95,770 98,768 100,767 103,765 105,762 108,760 110,757 113,755 115,753 118,752 121,751 124,750 127,749 131,748 134,748 137,747 140,745 143,744 146,742 148,741 151,739 154,737 157,736 159,734 162,731 164,729 166,726 168,723 170,721 172,718 174,716 177,714 180,712 183,710 186,709 189,708 192,707 195,706 198,705 201,703 204,701 206,699 209,697 211,694 213,692 215,689 218,687 220,685 222,683 225,681 228,679 231,677 234,676 237,675 240,674 243,673 246,672 249,670 252,668 255,667 258,665" fill="none" stroke="#000" stroke-width="1" /><path d="M382,554 C352,358 351,356 351,354 351,351 350,349 350,347 349,344 349,342 349,339 348,337 348,335 348,332 347,330 347,328 346,325 346,323 346,321 345,318 345,316 345,314 344,311 344,309 344,306 343,304 343,302 342,299 342,297 342,295 341,292 341,290 341,287 340,285 340,282 339,280 339,278 339,275 338,273 338,271 338,268 337,266 337,263 336,261 336,259 336,256 335,254 335,251 335,249 334,247 334,244 333,242 333,239 333,237 332,234 332,232 332,230 331,227 331,225 330,223 330,220 330,218 329,215 329,213 329,211 328,208 328,206 327,203 327,201 327,199 326,196 326,194 326,191 325,189 325,187 324,184 324,182 324,179 323,177 323,175 323,172 322,170 322,168 321,165 321,163 321,160 320,158 320,155 320,153 319,151 319,148 318,146 318,144 318,141 317,139 317,136 317,134 316,132 316,129 315,127 315,125 315,122 314,120 314,117 314,115 313,113 313,110 312,108 312,105 312,103 311,100 311,98 311,95 310,93 310,91 309,88 309,86 309,84 308,81 308,79 308,77 307,74 307,72 307,69 306,67 306,65 305,62 305,60 305,57 304,55 304,53 303,50 303,48 303,44 303,41 303,37 304,34 305,31 306,28 308,25 309,22 311,19 314,16 316,14 319,12 322,10 325,8 328,7 331,6 334,5 338,5 341,4 344,4 347,5 351,5 354,6 357,8 360,9 363,11 366,13 368,15 371,17 373,20 375,23 376,26 378,29 379,32 380,35 381,39 381,42 382,45 383,48 384,52 385,55 386,58 386,61 387,65 388,68 389,71 390,75 391,78 392,82 392,85 393,88 394,91 395,95 396,98 397,101 398,104 398,108 399,111 400,114 401,118 402,121 403,124 403,127 404,131 405,134 406,137 407,140 408,144 408,147 409,150 410,153 411,156 412,160 413,163 414,166 414,170 415,173 416,176 417,180 418,183 419,186 419,189 420,193 421,196 422,199 423,202 424,205 424,209 425,212 426,215 427,218 428,222 429,225 430,228 430,232 431,235 432,238 433,241 434,245 435,248 435,251 436,254 437,258 438,261 439,264 440,267 440,271 441,274 442,277 443,280 444,284 445,287 446,290 446,294 447,297 448,300 449,303 450,307 451,310 451,313 452,316 453,319 454,323 455,326 456,329 456,332 457,336 458,339 459,342 460,345 461,349 461,352 462,355 463,358 464,362 465,365 466,368 467,372 467,375 468,378 469,381 470,385 471,388 472,391 473,394 474,397 476,400 478,403 480,406 482,408 485,410 487,412 490,414 493,415 496,417 500,417 503,418 506,418 510,418 513,418 516,418 519,417 522,416 525,414 528,413 531,411 534,409 536,406 538,403 540,401 542,398 544,395 545,392 546,388 546,385 547,382 547,378 546,375 546,371 545,368 544,365 543,362 541,359 539,356 537,353 536,350 535,347 534,344 533,340 532,337 532,334 532,330 531,327 530,324 529,320 528,317 526,315 524,312 522,309 520,307 517,305 514,303 512,301 509,300 505,299 502,298 499,297 495,297 492,297 489,297 485,297 482,297 479,296 475,295 472,294 469,293 466,291 464,289 461,287 458,286 454,284 451,283 448,283 444,283 441,282 438,283 434,283 431,282 428,282 424,281 421,280 418,279 415,278 411,278 408,278 405,278 401,279 398,279 395,281 392,282 389,284 386,285 383,286 379,287 376,288 373,288 369,288 366,288 363,288 359,288 356,288 353,289 349,290 346,292 343,293 341,295 338,297 335,299 332,301 329,302 326,304 323,304 320,305 316,305 313,305 310,305 307,304 303,303 300,302 297,301 294,299 291,298 288,296 285,294 282,293 279,292 276,292 272,291 269,291 266,292 262,292 259,292 256,292 252,292 249,291 246,291 243,290 239,290 236,289 232,289 229,289 226,289 222,289 219,290 216,291 213,293 210,294 207,296 204,299 202,301 200,304 198,306 196,309 193,311 191,314 189,317 187,319 186,322 184,325 182,328 180,331 178,333 175,335 172,337 169,339 166,340 163,342 160,344 158,346 155,348 153,351 151,353 148,355 145,357 142,359 139,360 136,362 133,363 130,364 127,365 123,366 120,366 117,366 113,366 110,365 106,365 103,365 100,366 97,366 94,367 90,369 87,370 84,371 81,372 78,373 75,373 71,373 68,373 65,373 61,373 58,372 55,372 51,372 48,372 45,373 42,374 39,375 36,377 33,379 30,381 27,383 25,385 23,388 21,391 20,394 18,397 17,400 16,403 16,407 16,410 16,414 16,417 17,420 18,424 19,427 21,430 22,433 24,435 27,438 29,440 32,442 35,444 38,446 41,447 44,448 48,449 51,449 54,450 57,451 60,452 63,454 66,456 69,458 71,460 74,461 77,463 80,464 84,464 87,465 90,465 94,466 97,466 100,467 103,469 106,470 109,472 112,474 114,476 117,478 121,479 124,480 127,481 130,481 133,482 137,483 140,484 143,486 145,488 148,489 151,491 154,492 157,494 160,496 162,498 164,501 166,503 168,506 170,509 172,511 175,514 177,516 180,518 183,520 185,522 188,525 190,527 193,529 195,531 197,534 199,537 201,539 204,542 205,545 207,547 210,550 212,552 214,554 217,557 219,559 222,561 225,562 228,564 231,565 234,567 237,568 240,570 243,572 246,573 249,575 251,578 254,580 256,582 258,585 260,588 262,590 265,593 267,595 270,597 273,599 276,600 279,602 282,604 285,606 288,607 291,608 294,609 297,610 301,610 304,610 307,610 311,609 314,609 318,609 321,610 324,610 328,611 331,612 334,614 337,616 339,618 342,620 344,622 346,625 348,628 350,631 353,633 355,635 358,637 361,639 364,640 367,642 370,643 374,643 377,644 380,644 384,645 387,646 390,647 393,648 397,649 399,651 402,653 405,655 408,656 411,658 414,660 416,662 419,664 422,666 425,668 428,669 432,670 435,671 438,673 441,674 444,676 447,677 450,678 454,679 457,680 460,681 463,682 466,684 468,686 471,688 474,690 476,692 479,694 482,696 485,698 487,700 489,702 491,705 493,708 495,711 496,714 498,717 500,720 502,722 504,725 506,728 508,731 509,734 510,737 511,740 512,743 512,747 513,750 514,753 515,757 516,760 517,763 518,766 520,769 522,772 524,774 527,777 529,779 532,781 534,784 536,786 538,789 540,792 541,795 542,799 542,802 543,805 543,809 543,812 542,816 541,819 540,822 539,825 537,828 535,831 533,834 532,836 530,839 528,842 526,845 525,848 524,851 523,854 522,858 522,861 522,865 522,868 521,871 521,875 520,878 518,881 517,884 516,887 516,891 516,894 516,898 516,901 515,904 514,908 513,911 512,914 510,917 508,920 506,922 504,925 501,927 499,929 496,932 494,934 492,937 490,939 488,942 487,945 485,948 483,951 481,954 479,956 476,959 474,960 471,962 468,964 465,965 461,966 458,967 455,967 452,967 448,967 445,966 442,966 438,964 435,963 432,961 430,960 427,957 424,955 422,953 420,950 418,947 417,944 416,941 415,938 414,934 414,931 413,928 412,924 411,921 409,918 407,915 406,913 403,910 401,908 398,906 395,904 393,902 389,901 386,900 383,899 380,899 376,898 373,898 370,898 366,898 363,898 360,897 356,898 353,897 350,897 346,897 343,897 340,897 336,897 333,897 329,897 326,897 322,898 319,898 316,899 312,900 309,900 306,901 302,901 299,902 296,903 293,904 289,905 286,906 283,907 280,907 277,908 273,909 270,910 267,911 264,912 260,912 257,913 254,913 250,914 247,913 244,914 240,914 237,914 233,913 230,913 227,912 223,912 220,911 217,910 213,910 210,909 207,908 204,907 200,906 197,906 194,905 190,904 187,904 184,903 181,903 177,902 174,902 171,901 168,900 164,899 161,899 158,898 154,897 151,895 148,895 145,893 142,893 138,891 135,890 132,889 129,888 125,887 122,886 119,884 116,884 113,882 110,881 107,881 103,880 100,879 96,879 93,878 90,878 86,878 83,878 79,878 76,877 73,876 70,876 66,875 63,874 60,873 57,871 54,869 51,867 48,865 46,863 44,860 42,858 40,855 39,852 37,849 36,845 36,842 36,839 35,835 36,832 36,829 37,825 38,822 40,819 41,816 43,813 45,811 48,808 50,806 53,804 56,802 59,801 62,800 65,799 69,798 72,798 75,797 79,796 82,795 85,793 88,792 90,790 93,787 95,785 97,782 100,780 102,778 105,776 108,774 111,773 114,771 117,771 121,770 124,769 127,768 130,766 133,765 135,763 138,761 140,758 142,756 145,754 148,753 151,751 154,750 157,749 160,749 163,748 167,748 170,748 173,747 176,747 180,746 183,745 186,744 189,743 192,741 195,739 197,737 200,734 202,732 203,729 205,726 207,723 209,721 211,718 214,716 216,714 219,713 222,711 225,710 228,709 232,709 235,708 238,706 241,705 244,703 246,701 249,699 251,697 253,694 255,691 257,689 259,687 262,684 265,682 268,681 270,679" fill="none" stroke="#000" stroke-width="1" /><path d="M382,964 C449,699 450,696 451,693 451,690 452,686 453,683 454,680 455,677 456,674 456,670 457,667 458,664 459,661 460,658 460,654 461,651 462,648 463,645 464,642 465,639 467,636 469,633 471,631 473,628 476,626 478,624 481,622 484,621 487,620 490,619 494,618 497,618 501,618 504,618 507,618 510,619 514,620 517,621 518,622 522,624 525,625 526,625 529,627 531,627 535,629 538,630 541,631 544,631 547,632 551,633 554,634 557,635 560,637 563,639 566,640 569,642 572,643 575,644 578,644 582,645 585,645 588,645 592,645 595,646 598,647 601,648 604,649 607,651 610,653 613,655 615,657 618,659 621,660 624,661 628,662 631,663 634,664 637,666 640,667 643,669 646,670 649,671 653,672 656,672 659,672 663,672 666,671 669,671 672,671 676,670 679,669 682,667 685,666 688,664 690,662 693,660 695,657 697,655 698,652 700,649 702,646 704,643 705,640 707,637 709,634 710,631 712,629 714,626 716,623 718,620 720,617 721,614 723,612 725,609 727,606 728,603 730,601 732,598 734,595 736,592 737,589 739,586 741,584 743,581 744,578 746,575 748,572 749,569 751,566 753,563 755,560 756,557 758,554 760,551 761,549 763,546 765,543 767,540 769,537 770,534 772,531 774,528 776,526 778,523 779,520 781,517 783,514 785,511 787,508 788,505 790,503 792,500 794,497 796,494 798,491 800,489 802,486 804,483 805,480 807,478 809,475 811,472 813,469 815,466 817,464 819,461 821,458 822,455 824,453 826,450 828,447 830,444 832,441 834,438 836,436 837,433 839,430 841,427 843,424 845,421 847,418 848,415 850,412 852,409 853,406 855,403 857,401 858,398 860,395 862,392 864,389 865,386 867,383 869,380 871,378 872,375 874,372 876,369 878,366 880,363 882,361 883,358 885,355 887,352 889,349 890,346 892,344 894,341 896,338 898,335 899,332 901,329 903,326 904,323 906,320 908,317 909,314 911,312 912,309 914,306 916,303 917,300 919,297 921,294 923,291 924,288 926,285 928,282 929,280 931,277 933,274 935,271 936,268 938,265 940,262 942,259 943,257 945,254 946,251 947,248 948,244 949,241 949,237 949,234 949,231 949,227 948,224 947,221 946,218 944,215 943,212 941,209 938,207 936,204 935,201 933,198 932,195 931,192 930,189 930,185 929,182 929,179 929,175 929,172 930,168 931,165 931,162 933,159 933,155 934,152 935,149 936,146 937,142 938,139 939,136 940,133 941,129 942,126 943,123 943,120 944,116 945,113 946,110 947,107 947,103 948,100 948,97 947,93 947,90 946,87 946,84 946,80 946,77 947,74 947,70 947,67 948,64 948,60 948,57 948,53 947,50 947,47 946,43 944,40 943,37 941,34 939,32 937,29 934,27 932,25 929,23 926,21 923,20 919,19 916,18 913,18 909,18 906,18 902,18 899,19 896,20 893,21 890,23 887,24 884,27 882,29 879,31 877,34 875,36 873,39 871,42 869,44 867,47 865,49 863,52 861,55 859,58 858,61 857,64 856,67 855,71 855,74 855,77 854,80 853,84 851,87 850,90 848,92 846,95 843,97 841,100 838,102 835,104 832,106 830,108 827,110 825,113 823,115 820,117 818,120 816,123 814,125 812,128 811,131 810,134 809,138 809,141 808,145 808,148 809,151 809,154 810,158 812,161 813,164 815,167 817,170 819,172 821,175 823,178 825,180 827,183 829,186 831,189 833,191 835,194 837,197 839,200 841,202 843,205 844,208 846,210 848,213 850,216 852,218 855,221 856,224 859,226 860,229 862,231 864,234 866,237 868,240 870,242 872,245 874,248 876,251 878,253 880,256 882,259 884,262 886,264 888,267 890,270 892,272 894,275 895,278 898,281 900,283 902,286 904,289 906,292 908,294 910,297 912,300 914,302 916,305 918,308 920,310 922,313 924,316 926,319 928,322 930,324 932,327 934,330 936,332 938,335 940,338 942,341 944,343 945,346 947,349 949,352 951,355 953,358 954,361 955,364 956,367 957,370 957,374 957,377 957,381 956,384 955,387 954,390 952,393 951,396 949,399 947,402 945,405 944,408 943,411 942,415 942,418 942,421 942,425 941,428 940,431 939,434 938,437 936,440 934,443 932,446 931,449 930,452 929,455 928,458 928,462 928,465 928,468 928,471 929,474 930,478 932,481 933,484 934,487 936,490 937,493 938,496 940,499 941,502 942,506 944,509 945,512 946,515 947,518 948,521 950,524 951,528 951,531 952,534 952,538 951,541 951,544 950,548 949,551 948,554 947,557 947,561 947,564 948,568 948,571 949,574 950,577 951,581 952,584 952,588 952,591 952,594 952,597 951,601 950,604 948,607 947,610 946,613 946,616 946,620 946,623 946,626 947,630 947,633 947,637 947,640 947,643 947,646 948,650 949,653 950,656 951,659 951,663 952,666 952,669 951,673 951,676 950,679 949,682 948,686 948,689 947,692 947,695 948,699 948,702 949,705 950,708 950,712 950,715 950,718 950,721 949,725 949,728 949,732 949,735 949,738 950,742 950,745 950,748 949,752 949,755 950,758 949,762 950,765 950,768 949,772 949,775 949,779 950,782 950,785 950,789 949,792 949,795 949,799 950,802 950,805 950,809 949,812 949,815 949,819 950,822 950,825 949,829 949,832 949,835 950,839 949,842 949,846 950,849 949,852 949,856 950,859 949,863 949,866 949,869 949,873 949,876 949,880 949,883 949,886 949,890 949,893 949,896 949,900 949,903 949,907 949,910 949,913 949,917 949,920 950,924 949,927 949,930 950,934 949,937 949,941 950,944 949,947 949,951 949,954 949,958 948,961 947,964 946,967 944,970 942,973 940,975 938,978 935,980 932,982 929,984 926,985 923,987 920,988 917,988 913,989 910,989 906,989 903,988 900,987 896,986 893,985 890,983 887,981 885,979 882,977 880,974 878,971 876,969 874,966 872,964 869,961 867,958 865,956 863,953 861,951 859,948 857,946 854,943 851,941 849,939 847,937 844,934 843,931 841,929 840,925 839,922 837,919 836,916 834,913 832,910 830,908 828,905 825,903 822,901 820,899 817,897 815,894 813,891 811,889 809,886 807,883 806,880 805,877 804,874 803,870 803,867 803,864 803,860 804,857 804,854 806,850 807,847 809,844 811,842 813,839 815,837 818,834 820,832 823,830 826,828 828,825 831,823 834,821 836,819 839,817 841,814 844,812 846,810 849,808 852,806 854,804 857,803 860,801 863,799 865,797 868,794 871,792 873,790 876,788 879,786 881,783 884,781 886,779 889,777 891,774 894,772 896,770 899,768 902,766 904,764 907,761 909,759 911,756 913,753 916,751 919,749 921,747 923,745 926,742 929,740 932,739 935,737 938,736 941,734 943,732 946,730 949,728 951,725 953,723 955,720 956,717 958,714 959,710 959,707 960,704 960,700 960,697 960,694 959,691 958,688 957,684 955,681 953,678 951,676 949,673 946,671 944,669 941,667 938,665 935,664 932,663 928,662 925,662 922,662 918,662 915,662 912,663 908,663 905,664 902,665 899,666 896,668 893,669 890,672 888,674 885,676 883,678 880,681 878,683 876,686 873,688 871,690 869,693 866,695 864,697 861,700 859,702 857,704 854,707 852,709 849,711 847,713 844,716 842,718 839,720 837,723 834,725 832,727 829,730 826,732 824,734 822,736 819,739 816,741 814,743 811,745 809,748 806,750 804,752 801,754 799,756 796,758 794,761 791,763 789,765 786,768 784,770 781,772 779,774 776,777 774,779 771,781 769,784 767,786 764,788 762,791 759,793 757,795 754,798 752,800 749,802 747,805 745,807 742,809 740,812 737,814 735,817 733,819 730,821 728,824 726,826 723,828 721,831 719,833 716,835 714,838 711,840 709,843 707,845 704,848 702,850 700,853 697,855 695,857 693,860 690,862 688,865 686,867 683,870 681,872 679,875 677,877 674,880 672,882 670,885 668,887 665,890 663,893 661,895 659,898 656,900 654,903 652,905 650,908 648,910 646,913 643,915 641,918 639,921 637,923 634,926 632,928 630,931 628,933 625,936 623,939 621,941 619,943 616,946 614,948 612,951 609,953 607,955 604,957 601,958 598,960 594,961 591,961 588,962 584,962 581,962 577,961 574,961 571,959 568,958 565,957 562,955 559,953 557,950 554,948 552,945 549,943 546,942 543,940 541,938 538,936 536,934 533,931 531,929 529,926 527,924 524,922 521,920 518,919 515,917 512,916 509,915 505,915 502,914 499,914 496,914 492,914 489,914 486,915 483,916 480,917 477,918 474,920 472,922 469,924 466,926 464,928 461,930 458,931 456,933 453,935 450,937 447,939 445,941 442,943 439,945 436,946 433,948 430,950 427,952 425,953 421,954 418,955 415,955 412,955 408,955 405,955 402,954 399,953 396,952 393,950 390,949 387,947 384,946 381,945 377,944 374,944 371,944 367,944 364,944 361,943 358,943 354,942 351,942 348,943 345,943" fill="none" stroke="#000" stroke-width="1" /><path d="M649,444 C587,241 586,238 585,236 584,233 584,231 583,228 582,226 582,223 581,221 580,218 579,216 578,213 578,211 577,209 576,206 575,204 575,201 574,199 573,196 573,194 572,192 571,189 570,186 569,184 569,182 568,179 567,176 566,174 566,172 565,169 564,167 563,164 563,161 562,159 561,157 560,154 560,152 559,149 558,147 557,144 557,142 556,139 555,137 554,134 553,132 553,129 552,127 551,124 550,122 550,119 549,117 548,114 547,111 547,109 546,107 545,104 544,102 544,99 543,97 542,94 541,92 541,89 540,87 539,84 538,82 537,79 537,77 536,74 535,72 534,69 534,67 533,64 532,62 531,59 531,57 530,54 529,52 528,49 527,46 526,43 524,40 522,38 519,35 517,33 514,31 512,29 509,27 506,26 502,25 499,24 496,24 492,24 489,24 486,24 483,25 480,26 476,27 474,29 471,30 468,32 465,35 463,37 461,40 459,43 458,46 456,49 455,52 454,55 453,58 452,62 451,65 450,68 449,71 448,74 447,77 446,80 445,84 444,87 443,90 442,93 441,96 440,99 439,103 438,106 437,109 436,112 435,115 434,119 433,122 432,125 431,128 429,132 428,135 427,138 426,141 425,145 424,148 423,151 422,154 421,158 420,161 419,164 418,167 417,170 416,174 415,177 414,180 413,183 412,187 411,190 410,193 409,196 407,199 406,203 405,206 404,209 403,212 402,216 401,219 400,222 399,225 398,228 397,231 396,235 395,238 394,241 393,244 392,247 391,251 390,254 389,257 388,260 387,263 386,267 384,270 383,273 382,277 381,280 380,283 379,286 378,290 377,293 376,296 375,299 374,303 373,306 372,309 371,312 370,315 369,319 368,322 367,325 366,328 365,331 364,335 362,338 361,341 360,344 359,347 358,351 357,354 356,357 355,360 354,363 353,367 352,370 351,373 350,376 349,379 348,383 347,386 346,389 345,392 344,395 343,399 342,402 341,405 340,408 339,411 338,414 336,418 335,421 334,424 333,427 332,431 331,434 330,437 329,440 328,443 327,447 326,450 325,453 324,456 323,460 322,463 321,466 320,469 319,472 318,475 317,478 316,482 315,485 314,488 312,491 311,495 310,498 309,501 308,504 307,507 306,511 305,514 304,517 303,520 302,523 301,526 300,530 299,533 298,536 297,539 296,542 295,546 294,549 293,552 292,555 291,558 290,562 289,565 288,568 287,571 285,575 284,578 283,581 282,584 281,588 280,591 279,594 278,597 277,600 276,603 275,607 274,610 273,613 272,616 271,619 270,623 269,626 268,629 267,632 266,635 265,638 264,641 263,644 262,648 261,651 260,654 259,657 258,660 257,664 255,667 254,670 253,674 252,677 251,680 250,683 249,686 248,690 247,693 246,696 245,699 244,703 243,706 242,709 241,712 240,715 239,719 238,722 236,725 235,728 234,732 233,735 232,738 231,741 230,744 229,748 228,751 227,754 226,757 225,760 224,764 223,767 222,770 221,773 220,776 219,779 218,783 217,786 216,789 215,792 214,795 213,799 212,802 211,805 209,808 208,811 207,815 206,818 205,821 204,824 203,827 202,831 201,834 200,837 199,841 198,844 197,847 196,850 195,853 194,857 193,860 192,863 191,866 190,869 189,873 188,876 187,879 185,882 184,885 183,889 182,892 181,895 180,898 179,901 178,905 177,908 176,911 175,914 174,918 173,921 172,924 171,927 170,930 169,934 168,937 167,940 166,943 165,946 164,950 163,953 162,956 162,959 162,963 163,966 163,969 164,973 166,976 167,979 169,981 171,984 173,986 175,989 178,991 181,992 184,994 187,995 190,996 194,997 197,998 200,998 204,998 207,997 210,997 213,996 216,995 219,993 222,991 225,989 227,987 230,984 232,982 234,979 235,976 237,973 239,970 240,967 242,964 243,961 245,958 247,955 248,952 250,949 252,946 253,943 255,940 257,937 258,934 260,932 262,929 263,926 265,923 266,920 268,917 270,914 271,911 273,908 275,905 276,902 278,899 280,896 281,893 283,890 285,887 286,884 288,881 289,878 291,875 293,872 294,869 296,866 298,863 299,861 301,858 303,855 304,852 306,849 307,846 309,843 311,840 312,837 314,834 315,831 317,828 319,825 320,822 322,820 324,817 325,814 327,811 328,808 330,805 332,802 333,799 335,796 336,794 338,791 340,788 341,785 343,782 345,779 346,776 348,773 350,770 351,767 353,764 354,761 356,758 358,755 359,752 361,749 363,746 364,743 366,740 368,737 369,734 371,731 373,728 374,725 376,723 377,720 379,717 381,714 382,711 384,708 386,705 387,702 389,699 391,696 392,693 394,690 396,687 397,684 399,681 400,678 402,675 404,672 405,670 407,667 408,664 410,661 412,658 413,655 415,652 417,649 418,646 420,643 421,640 423,637 425,635 426,632 428,629 430,626 431,623 433,620 434,617 436,614 438,611 439,608 441,605 442,602 444,599 446,597 447,594 449,591 450,588 452,585 454,582 455,579 457,576 458,573 460,571 462,568 463,565 465,562 467,559 468,556 470,553 472,550 473,547 475,544 477,541 478,538 480,535 481,532 483,529 485,526 486,523 488,520 490,517 491,515 493,512 494,509 496,506 498,503 499,500 501,497 503,494 504,491 506,488 507,485 509,482 511,479 512,476 514,473 516,470 517,467 519,465 521,462 522,459 524,456 525,453 527,450 529,447 530,444 532,441 534,438 535,435 537,432 539,429 540,426 542,423 544,420 545,417 547,414 548,411 550,408 552,405 553,402 555,399 557,396 558,393 560,390 562,387 563,384 565,381 567,378 568,375 570,373 572,370 573,367 575,364 577,361 578,358 580,355 581,352 583,349 585,346 586,343 588,340 590,337 591,334 593,331 595,328 596,325 598,322 600,319 601,316 603,313 604,310 606,307 608,304 609,301 611,298 613,295 614,292 616,289 618,286 619,283 621,280 623,278 624,275 626,272 628,269 629,266 631,263 632,260 634,257 636,254 637,251 639,248 641,245 642,242 644,239 645,237 647,234 649,231 650,228 652,225 654,222 655,219 657,216 658,213 660,210 662,207 663,204 665,201 667,198 668,195 670,192 672,189 673,186 675,183 677,180 678,177 680,174 681,171 683,169 685,166 686,163 688,160 690,157 691,154 693,151 695,148 696,145 698,142 700,139 701,136 703,133 704,130 706,127 708,124 710,121 711,118 713,115 714,112 716,109 718,106 719,103 721,100 722,98 724,95 726,92 727,89 729,86 731,83 732,80 734,77 736,74 737,71 739,68 741,65 742,62 744,59 745,56 747,53 749,50 750,47 752,44 753,41 754,37 754,34 755,30 754,27 754,24 753,20 753,17 751,14 750,11 748,8 746,5 744,3 742,0 739,-1 736,-3 733,-4 730,-6 727,-7 724,-7 720,-8 717,-8 714,-8 710,-8 707,-7 704,-6 700,-5 697,-4 695,-2 692,0 690,1 687,4 685,6 683,9 681,12 680,15 679,18 678,22 677,25 675,28 674,31 673,34 672,37 671,41 669,44 668,47 667,50 666,53 665,56 664,60 662,63 661,66 660,69 659,72 658,75 656,79 655,82 654,85 653,88 652,91 651,94 649,97 648,100 647,104 646,107 645,110 644,113 643,116 641,119 640,122 639,126 638,129 637,132 635,135 634,138 633,141 632,144 631,148 629,151 628,154 627,158 626,161 625,164 623,167 622,170 621,173 620,177 619,180 618,183 616,186 615,189 614,192 613,195 612,198 611,201 609,205 608,208 607,211 606,214 605,217 604,220 602,224 601,227 600,230 599,233 598,236 596,239 595,243 594,246 593,249 592,252 591,255 589,259 588,262 587,265 586,268 585,271 583,274 582,278 581,281 580,284 579,287 578,290 576,293 575,296 574,299 573,302 572,306 571,309 569,312 568,315 567,318 566,322 565,325 564,328 562,331 561,334 560,337 559,341 558,344 556,347 555,350 554,353 553,356 552,359 551,363 549,366 548,369 547,372 546,376 545,379 543,382 542,385 541,388 540,391 539,394 538,397 536,401 535,404 534,407 533,410 532,414 530,417 529,420 528,423 527,426 526,430 524,432 523,436 522,439 521,442 520,445 519,448 517,451 516,455 515,458 514,461 513,464 511,467 510,471 509,474 508,477 507,480 506,483 504,486 503,490 502,493 501,496 500,499 498,502 497,506 496,509 495,512 494,515 492,518 491,521 490,525 489,528 488,531 487,534 485,537 484,540 483,543 482,546 481,550 480,553 478,556 477,559 476,562 475,565 474,568 473,571 472,575 470,578 469,581 468,584 467,587 466,590 465,593 464,596 463,599 461,602 460,605 459,608 458,611 457,614 456,617 454,620 453,624 452,627 451,630 450,633 449,636 447,639 446,642 445,646 444,649 443,652 442,655 440,658 439,661 438,664 437,667 436,670 435,673 434,676 432,679 431,683 430,686 429,689 428,692 427,695 425,698 424,701 423,704 422,707 421,711 420,714 418,717 417,720 416,723 415,726" fill="none" stroke="#000" stroke-width="1" /><path d="M249,351 C446,516 448,518 451,520 453,522 455,524 458,526 460,528 462,530 465,532 467,534 470,536 472,538 474,540 477,542 479,544 482,546 484,548 487,550 490,552 492,553 495,554 499,555 502,555 505,556 509,556 512,555 515,555 519,555 522,555 525,555 528,555 532,556 535,558 538,559 541,561 544,562 546,565 548,567 551,570 553,572 555,574 557,577 560,579 562,582 564,584 567,587 570,588 572,590 575,592 578,594 580,597 582,599 584,602 586,605 588,607 591,610 593,612 596,614 599,615 602,617 605,618 608,619 611,621 614,623 616,625 619,627 621,630 623,633 624,636 626,639 628,641 630,644 632,646 635,648 638,650 641,652 644,654 647,655 650,656 653,656 656,657 659,659 663,660 666,660 669,661 673,661 676,660 679,660 682,659 686,658 689,657 692,655 694,653 697,651 699,649 701,646 703,644 705,641 707,638 709,635 710,632 712,629 714,626 716,624 717,621 719,618 721,615 723,612 725,609 726,606 728,603 730,601 732,598 734,595 735,592 737,590 739,587 741,584 742,581 744,578 746,575 748,573 749,570 751,567 753,564 754,561 756,558 758,555 759,552 761,549 763,546 765,543 766,541 768,538 770,535 772,532 774,529 775,526 777,523 779,520 781,518 783,515 785,512 786,509 788,506 790,503 792,500 794,498 796,495 798,492 800,489 801,486 803,484 805,481 807,478 809,475 811,472 813,470 815,467 817,464 818,461 820,458 822,456 824,453 826,450 828,447 830,444 831,442 833,439 835,436 837,433 839,430 841,427 842,425 844,422 846,419 848,416 850,413 851,410 853,407 855,404 857,401 858,398 860,395 862,392 863,389 865,386 867,384 869,381 871,378 872,375 874,372 876,369 878,366 880,364 881,361 883,358 885,355 887,352 889,349 890,347 892,344 894,341 896,338 897,335 899,332 901,329 902,326 904,323 906,320 907,317 909,314 911,312 912,309 914,306 916,303 917,300 919,297 921,294 922,291 924,288 926,286 928,283 929,280 931,277 933,274 935,271 936,268 938,265 940,262 941,260 943,257 945,254 947,251 949,248 950,245 952,242 953,239 954,236 955,233 955,229 955,226 955,222 954,219 954,216 952,212 951,209 950,206 948,204 946,201 945,198 944,195 943,191 943,188 942,185 941,182 939,179 938,176 936,173 935,169 935,166 934,163 934,159 934,156 934,153 935,149 936,146 937,143 938,139 939,136 940,133 940,130 941,127 942,123 943,120 944,117 945,114 946,110 947,107 947,104 948,100 949,97 950,94 950,91 951,87 951,84 950,81 950,77 949,74 948,71 948,68 948,65 948,61 948,58 949,54 949,51 950,48 950,44 949,41 949,37 948,34 947,31 946,28 944,25 942,22 940,19 938,17 935,15 932,13 930,11 927,9 923,8 920,7 917,7 914,6 910,6 907,6 903,7 900,8 897,9 894,10 891,12 888,13 885,16 883,18 881,20 878,23 876,26 874,28 872,31 870,33 868,36 866,39 864,41 862,44 860,46 858,49 856,52 853,54 851,56 848,58 845,61 843,63 841,66 839,69 838,72 836,74 835,78 834,81 832,84 830,87 828,89 826,92 824,95 821,97 818,99 816,101 813,104 811,106 810,109 808,112 806,115 804,118 803,121 802,124 801,127 801,130 800,134 801,137 801,140 802,144 802,147 804,150 805,153 807,156 809,159 811,162 813,164 815,167 817,170 819,172 821,175 823,178 825,181 827,183 829,186 831,189 833,192 835,194 836,197 839,200 840,203 842,205 844,208 847,210 848,213 851,216 852,218 854,221 856,224 858,226 860,229 863,231 864,234 867,237 869,240 871,242 872,245 874,248 876,251 878,253 880,256 882,259 884,261 886,264 888,267 890,270 891,273 894,275 895,278 898,281 899,284 902,286 904,289 906,291 908,294 910,297 912,300 914,302 916,305 918,308 920,311 922,313 924,316 926,319 928,321 930,324 932,327 934,329 936,332 938,335 940,338 942,341 944,343 945,346 947,349 948,353 949,356 949,359 950,363 950,366 950,369 950,373 949,376 949,379 948,383 947,386 946,389 944,392 942,395 940,398 938,400 936,403 934,405 932,408 931,412 930,415 929,418 929,421 928,424 927,428 926,431 925,434 924,437 923,440 923,444 923,447 923,450 923,454 923,457 924,460 924,463 925,467 927,470 928,473 929,476 931,479 932,482 934,485 935,488 936,491 938,494 939,497 940,501 942,504 943,507 944,510 945,513 946,516 947,520 947,523 947,526 947,530 947,533 946,537 945,540 944,543 943,546 943,549 942,553 942,556 942,560 943,563 944,566 945,569 946,573 946,576 946,580 946,583 946,586 946,589 945,593 944,596 942,599 941,602 940,605 938,608 938,611 937,614 937,618 937,621 937,625 938,628 938,631 939,634 940,638 941,641 943,644 944,647 945,650 945,654 946,657 946,660 946,664 945,667 944,670 944,673 944,677 944,680 944,683 945,687 945,690 946,693 947,696 947,699 947,702 947,706 947,709 947,713 946,716 946,719 947,723 948,726 948,730 948,733 948,736 948,740 947,743 948,746 948,750 948,753 948,756 947,760 947,763 947,766 948,770 948,773 948,776 948,780 948,783 948,787 948,790 949,793 948,797 948,800 948,803 948,806 949,810 949,813 949,817 949,820 949,823 949,827 949,830 949,833 949,837 949,840 949,844 949,847 949,850 949,854 949,857 950,861 949,864 950,867 949,871 950,874 949,878 950,881 950,884 949,888 949,891 949,894 949,898 949,901 949,905 949,908 949,911 949,915 949,918 949,922 949,925 949,928 949,932 949,935 949,938 949,942 949,945 948,949 947,952 946,955 945,958 943,961 941,964 939,966 936,968 934,971 931,972 928,974 925,975 921,977 918,977 915,978 911,978 908,978 905,978 901,977 898,976 895,975 892,973 889,972 886,970 883,967 881,965 879,962 877,960 875,957 873,954 870,952 868,949 866,946 865,944 863,940 862,937 861,934 861,931 861,927 860,924 859,921 858,918 857,915 855,912 853,909 851,906 849,904 846,902 843,900 841,898 838,896 835,894 833,892 831,889 828,886 826,884 824,882 821,879 819,876 818,873 816,870 815,867 814,864 814,860 814,857 814,854 814,850 815,847 816,844 817,841 818,838 820,835 822,832 824,829 827,827 829,825 832,823 834,820 837,818 840,816 843,814 845,812 848,809 850,807 853,805 855,803 858,801 861,799 863,797 866,795 869,793 872,791 874,789 877,787 880,785 882,783 885,781 888,778 890,776 893,774 896,772 898,770 901,768 903,765 905,763 908,761 911,759 913,757 916,755 919,752 921,750 923,747 925,744 928,742 930,740 933,738 935,735 938,733 941,731 944,729 947,728 950,727 953,725 955,723 958,721 961,719 963,716 965,714 967,711 968,708 970,705 971,702 972,698 972,695 972,692 972,688 972,685 971,682 970,679 969,676 967,673 965,670 963,667 961,664 958,662 956,660 953,658 950,657 947,655 944,654 941,652 937,651 934,651 931,650 927,650 924,650 921,651 917,651 914,652 911,654 908,655 905,657 903,659 900,661 898,664 895,666 893,668 891,671 888,673 886,676 883,678 881,680 879,683 877,685 874,687 872,690 869,692 867,694 865,697 862,699 860,701 857,704 855,706 852,708 850,711 848,713 845,715 842,718 840,720 837,723 835,725 832,727 830,729 827,731 825,734 822,736 819,738 817,740 815,742 812,745 810,747 807,749 805,751 802,753 799,756 797,758 795,760 792,762 789,764 787,767 784,769 782,771 779,774 777,776 774,778 772,781 769,783 767,785 765,788 762,790 760,792 757,795 755,797 753,799 750,802 748,804 745,806 743,809 741,811 738,813 736,816 733,818 731,820 729,823 726,825 724,827 721,830 719,832 717,835 714,837 712,840 710,842 707,844 705,847 703,849 700,852 698,854 696,857 693,859 691,862 689,864 686,866 684,869 682,871 680,874 677,876 675,879 673,882 670,884 668,887 666,889 664,892 662,894 660,897 657,899 655,902 653,904 651,907 648,909 646,912 644,915 642,917 639,920 637,923 635,925 633,928 631,930 629,933 626,935 624,938 622,940 619,942 616,944 614,946 611,948 608,949 604,950 601,951 598,952 594,952 591,952 588,952 584,952 581,951 578,950 575,948 572,947 569,945 566,943 564,940 562,938 560,935 558,932 556,929 554,927 551,924 549,922 546,920 543,919 540,917 537,916 534,914 532,912 529,910 526,908 523,907 520,906 517,905 513,904 510,904 507,904 503,904 500,905 497,906 494,907 491,908 489,910 486,912 483,914 481,916 478,918 475,920 472,922 470,924 467,925 465,927 462,929 459,931 456,933 453,935 451,937 448,939 445,941 442,942 439,944 437,946 433,947 430,948 427,948 424,949 420,949 417,949 414,948 411,948 408,947 404,946 401,944 399,943 396,941 393,939 390,938 387,937 384,936 380,936 377,935 374,935 370,935 367,935 364,935 360,936 357,937" fill="none" stroke="#000" stroke-width="1" /><path d="M100,83 C24,280 23,283 22,286 22,290 22,293 22,296 22,299 23,302 24,306 26,309 27,312 29,314 31,317 33,319 36,321 39,323 41,325 44,327 47,328 50,329 53,330 57,331 60,332 63,334 66,335 69,336 72,337 75,338 78,340 81,341 85,342 88,343 91,344 94,346 97,347 100,348 103,349 107,350 110,351 113,353 116,354 119,355 122,356 125,357 129,359 132,360 135,361 138,362 141,363 144,365 147,366 151,367 154,368 157,369 160,371 163,372 166,373 169,374 172,375 176,376 179,378 182,379 185,380 188,381 191,382 194,384 197,385 201,386 204,387 207,388 210,390 213,391 216,392 219,393 222,394 226,395 229,397 232,398 235,399 238,400 241,401 244,403 248,404 251,405 254,406 257,407 260,409 263,410 266,411 269,412 272,413 276,415 279,416 282,417 285,418 288,419 291,420 294,421 297,423 300,424 304,425 307,426 310,427 313,429 316,430 319,431 322,432 326,433 329,435 332,436 335,437 338,438 341,439 344,441 348,442 351,443 354,444 357,445 360,446 363,448 366,449 369,450 372,451 376,452 379,454 382,455 385,456 388,457 391,458 394,460 398,461 401,462 404,463 407,464 410,466 414,467 417,468 420,469 423,470 426,472 429,473 433,474 436,475 439,477 442,478 445,479 449,480 452,481 455,483 458,484 461,485 464,486 467,487 471,489 474,490 477,491 480,492 483,493 486,494 489,496 493,497 496,498 499,499 502,501 505,502 509,503 512,504 515,505 518,506 521,508 524,509 527,510 530,511 534,512 537,514 540,515 543,516 546,517 550,519 553,520 556,521 559,522 563,523 566,525 569,526 572,527 575,528 578,529 581,531 585,532 588,533 591,534 594,535 597,537 600,538 603,539 607,540 610,541 613,543 616,544 619,545 622,546 625,547 629,549 632,550 635,551 638,552 641,553 644,555 648,556 651,557 654,558 657,559 660,561 663,562 667,563 670,564 673,564 676,565 680,565 683,565 686,564 690,563 693,562 696,561 699,559 702,557 704,555 707,553 709,550 711,548 713,544 714,541 715,538 716,535 717,532 717,528 717,525 717,522 716,519 716,515 714,512 713,509 712,505 711,502 709,499 707,497 705,494 703,492 701,490 698,488 695,485 693,483 691,480 689,478 687,475 686,472 685,468 684,465 684,462 683,459 682,456 680,452 679,449 677,447 675,444 672,441 670,439 667,437 665,434 664,431 662,429 659,426 657,424 655,421 653,418 651,416 648,413 646,411 643,409 640,408 637,406 635,403 632,401 630,398 628,396 627,393 625,390 624,387 623,384 621,381 620,378 617,376 615,373 614,370 612,367 610,364 608,362 606,359 604,356 603,353 601,350 599,347 597,344 595,341 593,339 591,336 588,334 585,332 582,330 580,329 577,327 574,326 571,324 568,322 565,320 563,318 560,315 558,312 556,309 555,307 553,303 552,300 551,297 551,294 550,291 548,287 547,285 545,282 543,279 541,276 539,274 536,272 533,270 531,269 528,267 524,266 521,265 518,265 514,264 511,265 508,264 504,264 501,263 498,262 495,261 491,261 488,260 485,259 482,257 479,256 476,254 473,251 470,250 467,248 464,246 461,245 458,245 455,244 451,244 448,244 444,244 441,245 438,246 435,247 432,248 429,250 426,251 423,252 419,253 416,254 413,254 409,254 406,254 402,254 399,253 396,253 392,254 389,254 386,255 383,256 379,257 376,258 373,258 369,258 366,258 363,258 359,257 356,256 353,256 349,256 346,256 343,257 340,258 337,259 333,260 330,261 327,261 324,261 320,261 317,260 314,260 311,258 307,258 304,257 301,257 297,257 294,257 290,258 287,258 284,258 281,258 277,258 274,258 271,259 268,260 264,261 261,263 258,264 255,265 252,267 249,268 246,270 243,272 241,274 238,276 235,278 233,280 230,283 228,285 225,287 223,290 220,292 218,294 215,297 213,299 210,300 207,302 205,305 202,307 200,310 199,313 197,316 195,319 193,321 191,324 188,326 186,328 183,330 180,332 177,333 174,335 170,336 167,337 164,338 161,338 157,338 154,338 151,338 147,337 144,336 140,336 137,336 134,337 131,338 127,339 124,340 121,342 118,343 116,345 113,347 110,348 107,349 103,350 100,351 97,351 94,351 90,350 87,350 84,350 80,350 77,350 74,350 71,351 68,352 64,353 61,354 58,354 54,354 51,354 47,354 44,354 41,354 37,355 34,356 31,358 28,359 25,361 23,363 20,366 18,368 16,371 14,374 13,377 12,380 11,384 10,387 10,390 10,394 10,397 11,400 12,404 13,407 14,410 16,413 18,416 20,418 22,421 25,423 27,425 30,427 33,428 36,429 40,430 43,431 46,431 50,432 53,432 56,433 59,435 62,436 65,437 69,438 72,440 75,441 78,443 80,444 84,446 86,447 90,449 93,450 96,451 99,453 102,454 105,455 108,456 111,458 114,459 117,461 120,463 123,464 125,466 128,468 131,470 133,472 136,474 138,476 141,478 144,480 146,482 149,484 151,487 154,489 157,491 159,494 161,496 164,499 166,501 168,503 171,506 173,508 175,511 177,514 179,516 181,519 183,521 186,524 188,526 190,528 193,531 195,533 198,535 200,537 203,540 205,542 208,544 210,546 213,549 215,551 218,553 220,555 223,557 226,559 228,561 231,563 234,565 237,567 240,568 243,570 246,572 249,574 252,575 255,576 258,578 261,579 264,580 268,581 271,581 274,581 278,581 281,581 284,580 288,579 291,579 295,579 298,580 301,580 305,581 308,583 311,584 314,586 317,587 320,588 323,589 327,590 330,590 333,591 337,592 340,593 343,594 346,596 349,598 351,599 355,601 358,602 360,604 363,606 366,608 369,610 371,612 374,614 377,616 380,618 383,619 386,620 389,621 393,623 396,624 399,626 401,628 404,630 407,632 410,634 413,635 416,637 419,638 422,639 426,640 429,640 432,640 436,641 439,641 442,642 445,643 448,645 451,647 454,649 456,651 459,653 461,656 462,659 464,661 466,664 468,667 470,670 472,673 474,676 476,678 477,681 479,684 481,687 483,690 484,693 486,696 487,699 489,702 490,705 491,708 493,711 494,714 495,718 497,721 498,724 499,727 501,730 502,733 504,736 505,739 507,742 508,745 510,748 511,751 512,754 513,758 514,761 515,764 515,768 516,771 516,775 516,778 516,781 516,785 516,788 515,791 515,795 514,798 514,801 513,805 513,808 512,811 512,814 512,818 511,821 511,825 511,828 511,832 511,835 510,838 510,842 510,845 509,848 508,852 507,855 507,858 506,861 505,865 504,868 503,871 502,874 501,878 500,881 498,884 497,887 496,891 494,893 493,896 491,899 489,902 487,905 485,908 483,910 481,913 479,916 477,918 475,921 473,924 471,927 469,929 466,932 464,934 461,936 459,938 456,940 453,942 450,944 447,945 444,946 441,947 438,947 434,948 431,947 427,947 424,947 421,946 418,944 415,943 412,941 409,939 406,937 404,935 402,932 400,929 398,926 397,923 395,920 393,918 391,915 389,913 386,910 384,908 382,905 379,903 377,901 374,899 371,897 368,896 365,895 362,894 358,893 355,893 352,893 348,893 345,894 342,894 339,894 335,894 332,894 328,893 325,892 322,892 319,892 315,893 312,893 308,894 305,895 302,896 298,896 295,896 291,896 288,895 285,895 281,895 278,896 275,896 271,897 268,898 265,900 262,901 259,902 256,903 253,903 249,903 246,903 242,902 239,902 236,901 233,899 230,898 227,896 224,895 220,894 217,894 214,894 210,894 207,894 203,894 200,894 197,893 193,893 190,892 187,890 184,889 181,887 179,885 176,882 174,880 171,878 168,877 165,875 162,874 158,874 155,873 152,873 149,872 145,872 142,871 139,869 136,867 133,866 130,864 127,863 124,862 121,861 117,860 114,860 110,860 107,859 104,858 101,856 98,855 95,853 92,852 88,852 85,851 82,851 78,851 75,851 71,851 68,851 65,851 61,850 58,849 55,848 52,846 49,845 46,843 43,841 41,839 38,836 36,834 34,831 32,828 31,825 29,822 28,819 28,816 27,812 27,809 28,806 28,802 29,799 30,796 31,793 33,790 35,787 37,784 39,782 42,780 45,777 47,776 50,774 53,772 57,771 60,770 63,770 67,769 70,768 73,768 77,767 80,767 83,766 87,765 90,764 93,763 96,762 99,761 102,759 105,757 108,756 110,754 113,752 116,750 119,748 121,746 124,744 127,743 130,741 133,740 136,738 139,737 142,735 144,733 147,732 150,731 153,730 156,729 160,728 163,728 166,728 170,727 173,727 176,726 179,725 182,723 185,721 187,719 190,717 192,715 194,712 197,710 199,707 201,705 204,703 207,701 209,699 212,697 215,695 217,693 220,691 223,690 226,689 229,687 232,685 234,683 237,681 240,679 242,677 245,675 247,673 250,670 252,668 255,666 257,664 259,662 262,660 265,658 267,656 270,654 273,653" fill="none" stroke="#000" stroke-width="1" /><path d="M637,710 C820,507 823,505 825,502 827,500 829,497 831,495 834,492 836,490 838,488 840,485 843,483 845,480 847,478 849,475 851,473 854,470 856,468 858,466 860,463 862,461 865,458 867,456 869,453 871,451 874,448 876,446 878,443 880,441 882,439 885,436 887,434 889,431 892,429 894,426 896,424 898,421 900,419 903,416 905,414 907,411 910,409 912,406 914,404 916,401 919,399 921,396 923,394 925,391 927,389 930,387 932,384 934,381 937,379 939,377 941,374 943,371 946,369 948,367 950,364 952,362 954,359 955,356 957,353 958,349 958,346 959,343 959,340 959,336 958,333 958,329 957,326 955,323 954,320 952,318 950,315 947,312 945,310 943,307 941,305 939,303 936,300 934,298 932,295 929,293 927,290 925,288 922,285 920,283 918,281 916,278 914,276 911,273 909,271 907,268 905,266 902,263 900,261 898,259 895,256 893,254 891,251 889,249 886,246 884,244 882,241 879,239 877,236 875,234 873,231 870,229 868,226 866,224 864,222 861,219 859,217 857,214 854,212 852,209 850,207 848,205 845,202 843,200 841,197 839,195 836,192 834,190 832,187 829,185 827,182 825,180 823,177 820,175 818,172 816,170 813,167 811,165 809,162 806,160 804,157 802,155 799,152 797,150 795,147 793,145 790,142 788,140 786,137 783,135 781,132 779,130 776,127 774,125 772,123 769,120 767,117 765,115 763,113 760,110 758,108 756,105 754,103 751,100 749,98 747,95 744,93 742,90 740,88 738,85 735,83 733,80 731,78 728,76 726,73 724,71 721,68 719,65 717,63 714,60 712,58 710,55 707,53 705,50 703,48 700,46 698,43 695,42 692,40 689,39 685,38 682,37 679,37 675,37 672,37 669,37 665,38 662,39 659,40 656,42 653,44 651,46 648,48 646,50 644,53 641,55 639,58 637,61 635,63 632,66 630,68 628,71 625,73 623,76 621,78 619,80 616,83 614,86 612,88 610,90 608,93 605,95 603,98 601,100 598,103 596,105 594,108 592,110 589,113 587,115 585,118 583,120 580,123 578,125 576,128 573,130 571,133 569,135 567,138 565,140 562,143 560,145 558,148 555,150 553,153 551,155 549,158 546,160 544,163 542,165 540,168 537,170 535,173 533,175 531,177 528,180 526,182 524,185 522,187 519,190 517,192 515,195 513,197 510,200 508,202 506,205 504,207 501,210 499,212 497,215 494,217 492,220 490,222 488,225 485,227 483,230 481,233 479,235 476,237 474,240 472,242 470,245 467,247 465,250 463,252 461,255 458,257 456,260 454,262 452,265 449,267 447,270 445,272 443,274 441,277 438,279 436,282 434,284 432,287 429,289 427,292 425,294 422,297 420,300 418,302 415,305 413,307 411,310 409,312 406,315 404,317 402,320 400,322 397,325 395,327 393,330 390,332 388,335 386,337 383,340 381,342 379,345 377,347 374,350 372,352 370,355 368,357 365,360 363,362 361,365 359,367 356,370 354,372 352,374 350,377 347,379 345,382 343,384 341,387 338,389 336,392 334,394 331,397 329,399 327,402 325,404 322,407 320,409 318,412 316,414 313,417 311,419 309,422 306,424 304,427 302,430 300,432 297,435 295,437 293,440 291,442 288,444 286,447 284,450 281,452 279,454 277,457 275,459 272,462 270,464 268,467 266,469 263,472 261,474 259,477 257,479 254,482 252,484 250,487 248,489 245,492 243,494 241,497 238,499 236,502 234,504 232,507 229,509 227,512 225,514 223,517 220,519 218,522 216,524 214,527 211,529 209,532 207,534 205,537 203,539 200,541 198,544 196,546 194,549 191,551 189,554 187,556 185,559 182,561 180,564 178,566 175,569 173,571 171,574 169,576 167,579 164,581 162,584 160,586 158,589 155,591 153,594 151,596 148,599 146,601 144,604 142,606 139,609 137,611 135,614 133,616 130,619 128,621 126,624 123,626 121,629 119,631 117,634 114,636 112,639 110,641 108,644 105,646 103,649 101,651 98,654 96,656 94,659 92,661 89,664 87,666 85,669 82,671 80,674 78,676 76,679 73,681 71,684 69,686 67,689 64,691 62,694 60,696 57,699 55,701 53,704 51,706 48,709 46,712 45,714 43,717 42,720 41,723 40,727 40,730 40,733 40,737 40,740 41,743 42,746 43,749 45,752 47,755 48,758 51,760 53,763 55,765 58,767 60,770 62,772 65,775 67,777 69,780 71,782 74,785 76,787 78,790 81,792 83,795 85,797 87,800 90,802 92,805 94,807 97,810 99,812 101,815 104,817 106,820 108,822 110,825 113,827 115,830 117,832 120,835 122,837 124,840 127,842 129,845 131,847 133,850 136,852 138,854 140,857 142,859 145,862 147,864 149,867 152,869 154,871 156,874 158,876 161,879 163,881 165,884 168,886 170,889 172,891 174,894 177,896 179,899 181,901 183,904 186,906 188,908 190,911 192,913 195,916 197,918 199,921 202,923 204,925 206,928 208,930 210,933 213,935 215,937 217,940 219,942 222,945 224,947 226,950 229,952 231,954 234,956 237,958 241,959 244,960 247,961 250,961 254,961 257,961 260,960 264,960 267,959 270,957 273,956 276,954 278,952 281,950 283,947 285,945 288,942 290,940 292,937 294,935 297,932 299,930 301,927 303,925 306,922 308,920 310,917 312,915 315,912 317,910 319,907 322,905 324,902 326,900 328,897 331,895 333,892 335,890 338,887 340,885 342,882 344,880 347,877 349,875 351,872 353,870 356,867 358,865 360,862 363,860 365,857 367,855 369,852 372,850 374,847 376,845 379,842 381,840 383,837 385,835 388,832 390,829 392,827 395,824 397,822 399,819 401,817 404,815 406,812 408,809 410,807 413,804 415,802 417,799 420,797 422,794 424,792 426,789 429,787 431,784 433,782 436,779 438,777 440,774 442,772 445,769 447,767 450,764 452,762 455,760 458,759 461,757 465,756 468,756 471,755 474,755 478,755 481,756 484,756 488,757 491,759 494,760 496,762 499,764 502,766 504,768 507,770 509,772 512,775 514,777 517,779 519,782 521,784 524,787 526,789 528,791 531,794 533,796 535,799 537,802 539,805 540,808 541,811 542,814 543,817 544,821 545,824 547,827 548,830 549,833 551,836 553,839 554,842 556,845 558,848 559,851 560,854 561,858 561,861 562,864 563,868 563,871 563,874 562,878 561,881 560,885 559,888 558,891 556,893 554,896 552,899 549,901 547,904 545,906 544,909 542,912 540,915 538,918 537,921 536,924 534,927 533,931 533,934 532,937 530,940 529,943 527,946 525,949 523,952 521,954 519,957 517,959 514,961 511,963 508,965 505,966 501,967 498,968 495,968 491,969 488,968 485,968 481,967 478,966 475,965 472,963 469,962 467,960 464,957 462,955 460,952 458,949 456,947 453,944 451,942 449,940 446,937 443,935 441,933 439,930 437,928 434,926 432,924 429,922 426,921 422,919 419,918 416,918 412,917 409,917 406,917 402,917 399,916 396,914 393,913 390,911 387,909 384,908 382,906 379,904 376,903 373,901 370,899 366,898 363,897 360,896 357,895 354,894 350,893 347,893 344,892 340,892 337,892 334,891 331,890 327,889 324,888 321,888 318,887 314,887 311,888 308,888 304,888 301,888 298,888 294,887 291,887 288,885 285,884 281,884 278,884 274,883 271,884 267,884 264,885 261,886 258,888 255,889 252,891 249,893 246,895 244,897 241,899 238,900 235,902 232,903 229,904 226,906 223,908 220,910 218,911 214,912 211,913 208,913 204,914 201,915 198,915 194,916 191,916 188,916 184,916 181,915 178,914 174,913 171,911 168,909 166,907 163,906 160,904 157,903 153,902 150,901 147,900 144,900 141,899 137,898 134,897 131,897 128,896 125,894 121,893 119,892 115,890 112,889 109,887 106,886 103,885 100,883 97,882 93,881 90,879 88,877 84,876 81,875 78,873 75,872 72,871 69,870 66,870 62,870 59,870 55,869 52,870 48,870 45,870 42,870 38,870 35,869 32,868 29,867 26,866 23,864 20,862 17,859 15,857 13,854 11,852 9,849 8,845 7,842 6,839 6,836 6,832 6,829 6,826 7,822 8,819 9,816 10,813 12,810 14,807 16,805 19,802 22,800 24,798 27,797 30,795 33,793 36,791 39,789 42,788 45,786 47,784 50,782 53,780 56,778 58,775 60,773 62,770 65,768 67,766 70,764 73,763 76,761 79,760 83,759 86,758 89,757 92,756 95,755 98,754 101,752 104,751 107,749 110,747 112,745 115,743 117,741 120,740 123,739 126,738 129,737 133,737 136,736 139,736 143,735 146,734 149,733 151,731 154,729 157,727 159,725 162,722 164,720 166,717 168,715 171,713 174,711 177,709 180,708 183,707 186,706 189,704 191,702 194,700 197,698 199,696 202,694 204,692 206,689 209,687 212,685 214,684 217,682 220,680 223,678 225,676 228,674 231,672 233,670 235,667 237,664 239,662 241,659 243,657" fill="none" stroke="#000" stroke-width="1" /><path d="M39,391 C141,645 142,648 143,651 144,655 146,658 147,661 148,664 149,667 150,670 152,673 153,676 154,679 155,682 157,685 158,688 159,691 160,694 161,697 163,700 164,703 165,706 166,710 168,713 169,716 170,719 171,722 173,725 174,728 175,731 176,734 177,737 179,741 180,744 181,747 182,750 184,753 185,756 186,759 187,762 189,766 190,769 191,772 192,775 194,778 195,781 196,784 197,787 199,790 200,793 201,796 202,800 204,803 205,806 206,809 207,812 209,815 210,818 211,821 212,824 214,828 215,831 216,834 217,837 219,840 220,843 221,846 222,849 224,853 225,856 226,859 227,862 228,865 230,868 231,871 232,874 234,877 235,881 236,884 237,887 238,890 240,893 241,896 242,899 243,902 245,905 246,908 247,912 248,915 250,918 251,921 252,924 253,927 255,930 256,933 257,936 258,939 260,942 261,945 262,949 263,952 265,955 266,957 268,960 271,963 273,965 276,967 279,969 282,971 285,972 288,973 291,974 295,974 298,974 301,974 305,974 308,973 311,972 314,971 317,970 320,968 322,966 325,964 327,961 329,958 331,956 333,953 334,950 335,946 336,943 338,940 339,937 340,934 341,930 342,927 343,924 345,921 346,918 347,914 348,911 349,908 350,905 352,902 353,898 354,895 355,892 356,889 358,886 359,883 360,879 361,876 362,873 363,870 364,867 366,863 367,860 368,857 369,854 370,851 371,848 373,845 374,841 375,838 376,835 377,832 378,829 380,825 381,822 382,819 383,816 384,813 385,810 387,807 388,804 389,800 390,797 391,794 392,791 394,787 395,784 396,781 397,778 398,774 400,771 401,768 402,765 403,762 404,759 405,755 407,752 408,749 409,746 410,743 411,740 412,736 414,733 415,730 416,727 417,724 418,721 419,718 420,715 422,711 423,708 424,705 425,702 426,699 427,695 429,692 430,689 431,686 432,683 433,679 434,676 436,673 437,670 438,667 439,664 440,661 441,658 443,654 444,651 445,648 446,645 447,642 448,639 450,635 451,632 452,629 453,626 454,623 455,620 457,616 458,613 459,610 460,607 461,604 462,601 463,598 465,594 466,591 467,588 468,585 469,582 470,578 472,575 473,572 474,569 475,566 476,563 477,560 479,556 480,553 481,550 482,547 483,544 484,541 485,538 487,535 488,532 489,528 490,525 491,522 492,519 494,516 495,512 496,509 497,506 498,503 499,500 501,496 502,493 503,490 504,487 505,484 507,481 508,478 510,475 512,473 515,470 517,468 520,466 523,464 526,463 529,462 533,461 536,460 539,460 542,460 546,459 549,458 552,456 554,455 557,453 560,451 562,448 564,446 566,443 568,440 570,437 571,434 572,430 572,427 573,424 573,420 572,417 572,413 571,410 570,407 568,404 567,401 565,398 563,396 560,393 558,391 556,388 554,385 552,382 551,379 549,376 548,373 547,369 546,366 545,363 544,360 543,357 542,354 541,350 540,347 538,344 537,341 535,338 534,335 532,333 530,330 527,328 525,325 523,323 520,321 517,318 515,316 512,315 509,313 506,311 504,309 501,307 498,306 495,304 492,302 489,301 486,299 483,297 480,295 478,293 475,291 472,289 469,288 466,286 463,285 460,284 457,282 454,281 450,280 447,279 444,278 441,278 437,277 434,277 430,277 427,277 424,278 421,278 417,279 414,279 410,279 407,279 404,279 400,279 397,280 394,280 390,281 387,281 384,281 380,281 377,282 374,282 370,282 367,282 364,283 360,284 357,285 354,286 351,286 347,287 344,286 341,286 337,286 334,285 331,284 328,283 325,282 322,281 318,280 315,280 312,280 308,280 305,280 302,281 298,282 295,283 292,284 289,285 285,285 282,285 279,285 276,285 272,284 269,284 265,285 262,286 259,287 256,288 253,289 250,291 247,293 245,295 242,298 240,301 238,303 237,306 235,309 233,312 230,315 228,317 225,319 222,321 219,322 217,324 214,326 211,328 209,331 207,333 205,336 204,339 202,342 200,345 197,347 195,349 192,351 190,354 187,356 185,359 183,361 180,364 178,366 175,367 172,369 169,370 165,371 162,372 159,372 155,372 152,372 149,372 145,371 142,371 139,370 135,370 132,370 129,370 125,370 122,371 119,371 115,371 112,371 109,372 106,373 103,375 100,376 97,378 94,379 90,380 87,380 84,380 81,380 77,380 74,379 71,379 67,378 64,378 60,378 57,378 54,379 50,380 47,381 44,382 41,383 38,385 36,387 33,390 31,392 29,395 27,398 25,401 24,404 23,407 22,410 22,414 22,417 22,420 22,424 23,427 24,430 25,433 27,436 29,439 31,442 33,445 36,447 38,449 41,451 44,452 47,454 50,454 53,455 56,456 60,456 63,456 66,457 70,458 73,459 76,461 79,463 81,465 84,467 86,469 88,472 90,475 93,477 95,479 98,481 101,482 104,484 107,485 111,485 114,486 117,486 121,486 124,487 127,488 130,489 133,490 136,492 139,494 141,496 144,498 147,499 150,501 153,503 155,504 158,507 160,509 162,511 165,514 167,517 169,519 172,522 175,524 177,525 180,527 183,529 185,532 187,534 189,537 191,540 193,543 195,545 197,548 200,550 203,552 206,553 209,555 212,556 215,557 218,558 221,560 224,561 227,563 230,565 233,567 235,569 238,571 240,573 243,575 246,577 249,578 252,579 255,581 258,582 261,584 264,587 266,589 269,590 272,592 276,593 279,594 282,594 286,595 289,595 292,595 296,595 299,596 302,597 305,598 309,599 312,599 315,600 319,601 322,602 325,603 328,605 331,607 333,609 336,611 339,613 342,614 345,615 349,616 352,617 355,617 359,618 362,618 365,620 368,621 371,623 374,625 376,627 379,629 381,631 384,633 387,635 390,636 394,638 397,639 400,641 402,643 405,645 408,647 411,649 414,650 417,651 420,653 423,654 426,656 429,658 432,659 435,661 438,661 442,662 445,664 448,666 450,668 453,670 455,672 457,675 459,677 461,680 462,683 464,686 464,690 466,693 467,696 469,699 471,701 473,704 475,706 478,709 481,710 483,713 485,715 488,718 490,720 491,723 493,726 494,729 495,733 495,736 496,740 496,743 497,746 498,749 500,752 501,755 503,758 506,761 508,763 510,766 512,768 514,771 515,775 516,778 517,781 518,784 518,788 518,791 519,795 518,798 518,801 517,805 516,808 515,811 514,814 512,817 510,820 508,822 506,825 504,828 503,831 502,834 501,837 500,841 500,844 500,848 500,851 501,854 502,858 502,861 503,864 503,868 502,871 502,875 501,878 500,881 498,884 496,887 494,890 492,892 490,895 489,898 487,901 486,904 485,908 484,911 484,914 484,918 483,921 482,924 481,928 480,931 478,934 476,937 475,940 473,942 472,945 470,948 469,951 467,954 465,957 462,960 460,962 457,964 454,966 451,967 448,968 445,969 442,970 439,971 435,971 432,971 429,970 425,969 422,968 419,967 416,965 413,964 410,961 408,959 406,957 404,954 402,951 400,948 398,945 396,942 394,940 392,938 389,935 387,933 385,930 383,927 381,924 379,922 377,920 374,918 371,916 368,914 365,913 362,912 359,911 356,910 352,910 349,909 346,908 342,908 339,908 336,907 332,907 329,906 326,906 322,907 319,907 316,908 312,908 309,907 306,907 302,908 299,908 295,908 292,908 288,909 285,909 282,910 279,911 275,912 272,912 268,912 265,912 262,912 258,912 255,912 252,911 249,910 246,910 242,909 239,909 235,909 232,910 229,911 226,911 222,911 219,911 215,911 212,910 209,909 206,908 203,907 199,906 196,905 193,904 190,902 187,901 183,900 180,898 177,897 174,896 171,896 167,896 164,895 161,895 158,893 155,892 152,891 149,889 146,887 143,885 140,883 137,882 134,881 131,880 127,880 124,879 121,879 117,878 114,877 111,876 108,874 105,872 102,871 99,869 96,868 93,868 89,867 86,867 83,866 79,866 76,865 73,864 69,863 66,863 63,862 59,862 56,860 53,860 50,859 46,859 43,859 40,858 36,857 33,855 30,854 27,852 25,850 22,847 20,845 18,842 16,839 15,836 13,833 12,830 12,827 11,823 11,820 11,817 12,813 13,810 14,807 15,804 17,801 19,798 21,795 23,793 26,790 28,788 31,787 34,785 37,783 40,781 43,779 46,778 49,776 51,774 54,772 57,770 59,767 61,765 63,762 65,759 66,756 67,753 68,749 69,746 70,743 72,740 74,737 76,735 78,732 81,730 83,728 86,726 89,725 92,724 95,723 98,722 101,721 104,721 108,720 111,720 114,719 117,719 121,719 124,719 127,719 130,718 134,718 137,717 140,716 143,715 146,714 149,713 152,711 155,710 158,708 161,706 163,704 166,701 168,699 171,697 173,695 176,694 179,692 183,691 186,691 189,690 192,688 195,687 198,685 200,683 203,681 205,679 207,676 209,673 210,670 212,667 214,665 216,662 219,660 221,658 224,656 227,655 230,653 232,651" fill="none" stroke="#000" stroke-width="1" /></svg>